<svg xmlns="http://www.w3.org/2000/svg" xmlns:xlink="http://www.w3.org/1999/xlink" width="2245" zoomAndPan="magnify" viewBox="0 0 1683.75 1190.250009" height="1587" preserveAspectRatio="xMidYMid meet" version="1.0"><defs><g/></defs><path fill="#e5d5b7" d="M 1444.480469 842.148438 C 1438.703125 840.703125 1433.117188 839.664062 1427.726562 838.902344 C 1428.199219 838.109375 1428.6875 837.28125 1429.15625 836.515625 C 1431.15625 833.007812 1432.949219 829.394531 1434.539062 825.679688 C 1436.128906 821.964844 1437.503906 818.171875 1438.664062 814.300781 C 1439.824219 810.429688 1440.757812 806.507812 1441.472656 802.53125 C 1442.1875 798.554688 1442.671875 794.550781 1442.933594 790.519531 C 1443.191406 786.488281 1443.222656 782.453125 1443.023438 778.417969 C 1442.824219 774.382812 1442.398438 770.371094 1441.746094 766.382812 C 1441.09375 762.398438 1440.214844 758.460938 1439.113281 754.570312 C 1438.011719 750.683594 1436.695312 746.871094 1435.164062 743.132812 C 1433.671875 739.425781 1431.972656 735.8125 1430.070312 732.296875 C 1428.164062 728.785156 1426.070312 725.386719 1423.78125 722.109375 C 1421.488281 718.832031 1419.023438 715.695312 1416.375 712.699219 C 1413.730469 709.703125 1410.921875 706.867188 1407.953125 704.1875 C 1404.984375 701.511719 1401.875 699.011719 1398.625 696.6875 C 1395.371094 694.363281 1391.996094 692.230469 1388.5 690.289062 C 1385.007812 688.351562 1381.414062 686.613281 1377.71875 685.082031 C 1374.027344 683.550781 1370.261719 682.230469 1366.417969 681.128906 C 1356.679688 678.292969 1346.742188 676.867188 1336.601562 676.859375 C 1331.671875 676.859375 1326.769531 677.210938 1321.894531 677.914062 C 1327.410156 658.597656 1330.804688 638.914062 1332.070312 618.863281 C 1332.410156 614.074219 1332.671875 609.300781 1332.832031 604.59375 C 1333.96875 571.449219 1330.722656 538.675781 1327.753906 505.726562 C 1323.859375 462.578125 1324.960938 417.730469 1307.917969 377.039062 C 1295.011719 346.195312 1260.941406 294.546875 1177.652344 294.546875 C 1169.339844 294.546875 1161.890625 295.050781 1155.300781 295.503906 C 1150.902344 295.796875 1146.761719 296.070312 1143.9375 296.070312 L 1142.394531 296.070312 C 1105.890625 296.070312 1075.0625 303.863281 1050.34375 319.265625 C 1043.53125 316.023438 1036.539062 313.226562 1029.371094 310.875 C 1002.214844 301.914062 968.59375 297.355469 929.410156 297.304688 L 927.316406 297.222656 C 923.113281 297.078125 916.75 296.835938 909.265625 296.835938 C 893.558594 296.59375 878.007812 298.042969 862.613281 301.183594 C 833.394531 307.679688 814.921875 321.265625 803.1875 335.597656 C 782.636719 313.667969 750.207031 294.546875 699.527344 294.546875 C 691.234375 294.546875 683.765625 295.050781 677.175781 295.503906 C 672.792969 295.796875 668.636719 296.070312 665.8125 296.070312 L 664.289062 296.070312 C 635.636719 296.070312 610.507812 300.941406 589.066406 310.40625 C 579.59375 307.179688 569.855469 305.558594 559.847656 305.535156 C 548.097656 305.535156 536.667969 305.941406 525.613281 306.347656 C 515.875 306.703125 506.785156 307.027344 498.101562 307.0625 L 495.128906 306.65625 C 487.019531 305.375 478.859375 304.691406 470.652344 304.609375 C 465.832031 304.636719 461.027344 304.917969 456.238281 305.453125 L 454.160156 305.308594 C 450.28125 305.015625 444.988281 304.609375 438.882812 304.609375 C 420.867188 304.609375 397.28125 306.234375 374.589844 318.714844 C 343.164062 336.035156 324.414062 368.679688 324.414062 406.042969 C 324.414062 406.839844 324.414062 407.667969 324.414062 408.429688 C 324.285156 423.039062 323.992188 457.027344 351.292969 484.574219 C 355.550781 488.871094 360.199219 492.6875 365.238281 496.027344 C 370.28125 499.363281 375.609375 502.152344 381.226562 504.394531 C 381.226562 506.210938 381.066406 508.078125 380.984375 509.976562 C 380.675781 516.746094 380.316406 524.40625 380.316406 532.554688 C 380.316406 536.597656 380.464844 540.183594 380.578125 543.089844 C 380.578125 544.714844 380.707031 546.335938 380.707031 547.296875 C 380.707031 553.609375 380.609375 560.019531 380.527344 566.773438 C 380.414062 573.949219 380.316406 581.382812 380.316406 589.011719 C 380.316406 593.183594 380.449219 596.851562 380.5625 600.113281 C 380.5625 601.492188 380.660156 602.808594 380.675781 603.945312 L 380.527344 605.160156 C 379.675781 611.519531 379.21875 617.902344 379.164062 624.316406 C 379.164062 635.5 379.863281 645.515625 380.59375 654.523438 C 380.59375 655.1875 380.511719 655.886719 380.480469 656.488281 C 379.871094 664.957031 379.71875 673.4375 380.027344 681.921875 C 377.65625 681.210938 375.15625 680.542969 372.722656 679.976562 C 364.265625 677.816406 355.671875 676.734375 346.945312 676.730469 C 336.796875 676.738281 326.851562 678.160156 317.109375 681 C 313.265625 682.105469 309.496094 683.429688 305.804688 684.964844 C 302.109375 686.503906 298.515625 688.242188 295.019531 690.191406 C 291.523438 692.136719 288.152344 694.273438 284.898438 696.601562 C 281.644531 698.933594 278.535156 701.4375 275.570312 704.121094 C 272.601562 706.804688 269.796875 709.648438 267.152344 712.648438 C 264.507812 715.652344 262.042969 718.796875 259.757812 722.078125 C 257.472656 725.359375 255.378906 728.761719 253.480469 732.28125 C 251.578125 735.804688 249.886719 739.421875 248.398438 743.132812 C 246.859375 746.875 245.539062 750.691406 244.4375 754.585938 C 243.335938 758.476562 242.457031 762.417969 241.800781 766.410156 C 241.148438 770.402344 240.722656 774.417969 240.523438 778.457031 C 240.324219 782.5 240.355469 786.539062 240.617188 790.574219 C 240.878906 794.609375 241.371094 798.621094 242.085938 802.601562 C 242.804688 806.582031 243.746094 810.507812 244.910156 814.382812 C 246.074219 818.257812 247.453125 822.054688 249.046875 825.769531 C 250.644531 829.488281 252.445312 833.101562 254.453125 836.613281 C 254.90625 837.425781 255.410156 838.238281 255.878906 838.984375 C 250.507812 839.78125 244.90625 840.820312 239.128906 842.230469 C 187.054688 855.136719 152.496094 907.257812 160.433594 961.015625 C 167.753906 1010.652344 207.28125 1047.046875 258.753906 1051.738281 L 259.207031 1051.738281 C 255.316406 1063.160156 253.394531 1074.90625 253.445312 1086.976562 C 253.445312 1131.078125 282.175781 1170.035156 325.015625 1183.882812 C 335.453125 1187.25 346.15625 1188.933594 357.121094 1188.929688 C 392.523438 1188.929688 418.089844 1171.578125 431.792969 1162.261719 L 434.097656 1160.636719 C 441.710938 1155.539062 448.933594 1150.460938 455.914062 1145.542969 C 459.160156 1143.269531 462.40625 1140.996094 465.652344 1138.742188 C 480.554688 1128.386719 493.683594 1119.261719 505.828125 1110.691406 C 508.816406 1114.058594 512.03125 1117.191406 515.476562 1120.09375 C 518.917969 1122.992188 522.554688 1125.625 526.382812 1127.996094 C 530.210938 1130.367188 534.1875 1132.449219 538.320312 1134.242188 C 542.449219 1136.035156 546.6875 1137.515625 551.035156 1138.691406 C 560.617188 1141.273438 570.355469 1142.945312 580.253906 1143.707031 C 595.1875 1145.070312 611.695312 1145.25 624.421875 1145.25 L 636.953125 1145.25 C 649.988281 1145.160156 662.976562 1144.292969 675.910156 1142.652344 C 683.113281 1141.726562 690.230469 1140.375 697.273438 1138.59375 C 701.808594 1139.46875 706.386719 1140.011719 711.003906 1140.21875 L 712.871094 1140.300781 L 714.722656 1140.300781 C 718.390625 1140.300781 723.730469 1140.300781 729.964844 1139.828125 L 731.585938 1139.828125 C 740.304688 1139.550781 756.519531 1139.03125 773.335938 1134.40625 C 778.121094 1133.097656 782.792969 1131.472656 787.359375 1129.539062 C 790.402344 1131.324219 793.523438 1133.015625 796.726562 1134.617188 C 824.078125 1148.21875 857.175781 1155.101562 895.0625 1155.101562 C 901.179688 1155.058594 907.25 1154.519531 913.277344 1153.480469 C 946.164062 1148.480469 973.59375 1138.089844 995.332031 1122.542969 C 997.527344 1124.585938 999.816406 1126.523438 1002.199219 1128.347656 C 1004.578125 1130.175781 1007.039062 1131.886719 1009.582031 1133.480469 C 1012.125 1135.074219 1014.738281 1136.546875 1017.421875 1137.894531 C 1020.101562 1139.238281 1022.84375 1140.457031 1025.640625 1141.542969 C 1028.4375 1142.632812 1031.28125 1143.582031 1034.167969 1144.402344 C 1037.054688 1145.21875 1039.976562 1145.898438 1042.929688 1146.4375 C 1045.878906 1146.980469 1048.851562 1147.378906 1051.839844 1147.640625 C 1054.832031 1147.898438 1057.828125 1148.015625 1060.828125 1147.992188 C 1070.945312 1147.867188 1081.015625 1147.097656 1091.035156 1145.6875 C 1094.378906 1145.28125 1097.53125 1144.875 1099.914062 1144.683594 L 1103.46875 1144.375 L 1106.992188 1143.757812 C 1110.0625 1143.21875 1113.097656 1142.527344 1116.097656 1141.671875 C 1119.097656 1140.820312 1122.042969 1139.8125 1124.9375 1138.652344 C 1127.832031 1137.492188 1130.65625 1136.183594 1133.414062 1134.726562 C 1136.171875 1133.273438 1138.847656 1131.675781 1141.4375 1129.941406 C 1144.027344 1128.207031 1146.519531 1126.34375 1148.917969 1124.347656 C 1151.3125 1122.351562 1153.597656 1120.238281 1155.773438 1118.003906 C 1157.949219 1115.769531 1160.003906 1113.429688 1161.933594 1110.980469 C 1163.863281 1108.53125 1165.664062 1105.992188 1167.328125 1103.355469 C 1182.359375 1113.9375 1198.707031 1125.382812 1218.023438 1138.804688 L 1227.761719 1145.605469 C 1234.742188 1150.476562 1241.949219 1155.605469 1249.578125 1160.703125 L 1251.867188 1162.324219 C 1265.617188 1171.644531 1291.179688 1188.996094 1326.535156 1188.996094 C 1337.496094 1188.996094 1348.195312 1187.3125 1358.628906 1183.945312 C 1401.464844 1170.117188 1430.246094 1131.175781 1430.210938 1087.042969 C 1430.257812 1074.984375 1428.335938 1063.25 1424.449219 1051.835938 L 1424.902344 1051.835938 C 1476.375 1047.226562 1515.886719 1010.75 1523.222656 961.113281 C 1531.113281 907.257812 1496.554688 855.136719 1444.480469 842.148438 Z M 1444.480469 842.148438 " fill-opacity="1" fill-rule="nonzero"/><path fill="#fff8ee" d="M 1444.480469 824.992188 C 1438.703125 823.5625 1433.117188 822.507812 1427.726562 821.746094 C 1428.199219 820.949219 1428.6875 820.121094 1429.15625 819.359375 C 1431.160156 815.84375 1432.960938 812.230469 1434.550781 808.511719 C 1436.144531 804.792969 1437.523438 800.996094 1438.683594 797.121094 C 1439.84375 793.246094 1440.785156 789.316406 1441.5 785.332031 C 1442.214844 781.351562 1442.703125 777.34375 1442.960938 773.304688 C 1443.21875 769.269531 1443.25 765.230469 1443.050781 761.1875 C 1442.851562 757.148438 1442.421875 753.132812 1441.765625 749.140625 C 1441.109375 745.148438 1440.230469 741.207031 1439.125 737.3125 C 1438.023438 733.421875 1436.699219 729.605469 1435.164062 725.863281 C 1433.671875 722.15625 1431.972656 718.542969 1430.070312 715.027344 C 1428.164062 711.511719 1426.070312 708.117188 1423.78125 704.839844 C 1421.488281 701.5625 1419.023438 698.425781 1416.375 695.429688 C 1413.730469 692.433594 1410.921875 689.59375 1407.953125 686.917969 C 1404.984375 684.242188 1401.875 681.738281 1398.625 679.414062 C 1395.371094 677.09375 1391.996094 674.960938 1388.5 673.019531 C 1385.007812 671.078125 1381.414062 669.34375 1377.71875 667.8125 C 1374.027344 666.277344 1370.261719 664.960938 1366.417969 663.855469 C 1356.679688 661.019531 1346.742188 659.597656 1336.601562 659.589844 C 1331.671875 659.589844 1326.769531 659.941406 1321.894531 660.644531 C 1327.410156 641.324219 1330.804688 621.640625 1332.070312 601.589844 C 1332.417969 596.796875 1332.671875 592.046875 1332.832031 587.339844 C 1333.96875 554.175781 1330.722656 521.421875 1327.753906 488.453125 C 1323.859375 445.308594 1324.960938 400.460938 1307.917969 359.765625 C 1295.0625 328.957031 1260.988281 277.273438 1177.699219 277.273438 C 1169.390625 277.273438 1161.941406 277.777344 1155.347656 278.234375 C 1150.949219 278.523438 1146.8125 278.816406 1143.988281 278.816406 L 1142.445312 278.816406 C 1105.96875 278.898438 1075.144531 286.609375 1050.457031 301.996094 C 1043.644531 298.753906 1036.652344 295.957031 1029.484375 293.605469 C 1002.328125 284.644531 968.710938 280.082031 929.523438 280.035156 L 927.429688 280.035156 C 923.226562 279.871094 916.863281 279.644531 909.378906 279.644531 C 893.671875 279.398438 878.121094 280.84375 862.726562 283.980469 C 833.511719 290.472656 815.039062 304.058594 803.300781 318.390625 C 782.71875 296.414062 750.285156 277.273438 699.609375 277.273438 C 691.3125 277.273438 683.847656 277.777344 677.257812 278.234375 C 672.875 278.523438 668.71875 278.816406 665.894531 278.816406 L 664.367188 278.816406 C 635.71875 278.816406 610.589844 283.6875 589.148438 293.132812 C 579.675781 289.910156 569.9375 288.285156 559.929688 288.265625 C 548.175781 288.265625 536.75 288.6875 525.695312 289.074219 C 515.957031 289.433594 506.867188 289.757812 498.179688 289.789062 L 495.210938 289.382812 C 487.101562 288.101562 478.941406 287.421875 470.734375 287.339844 C 465.914062 287.367188 461.109375 287.648438 456.316406 288.183594 L 454.242188 288.039062 C 450.359375 287.746094 445.070312 287.339844 438.964844 287.339844 C 420.949219 287.339844 397.363281 288.960938 374.667969 301.445312 C 343.242188 318.765625 324.496094 351.40625 324.496094 388.773438 C 324.496094 389.570312 324.496094 390.394531 324.496094 391.175781 C 324.363281 405.785156 324.074219 439.757812 351.375 467.304688 C 355.632812 471.597656 360.28125 475.417969 365.324219 478.757812 C 370.363281 482.097656 375.691406 484.894531 381.308594 487.140625 C 381.308594 488.941406 381.144531 490.808594 381.066406 492.707031 C 380.757812 499.476562 380.398438 507.136719 380.398438 515.285156 C 380.398438 519.328125 380.546875 522.929688 380.660156 525.820312 C 380.660156 527.441406 380.789062 529.148438 380.789062 530.023438 C 380.789062 536.339844 380.691406 542.765625 380.609375 549.503906 C 380.496094 556.660156 380.398438 564.109375 380.398438 571.722656 C 380.398438 575.894531 380.527344 579.582031 380.644531 582.828125 C 380.644531 584.207031 380.738281 585.539062 380.757812 586.671875 L 380.609375 587.875 C 379.757812 594.230469 379.300781 600.617188 379.246094 607.027344 C 379.246094 618.210938 379.945312 628.226562 380.675781 637.238281 C 380.675781 637.902344 380.59375 638.601562 380.5625 639.199219 C 379.953125 647.671875 379.800781 656.148438 380.105469 664.636719 C 377.738281 663.9375 375.238281 663.273438 372.800781 662.6875 C 364.347656 660.527344 355.753906 659.445312 347.027344 659.441406 C 336.878906 659.457031 326.933594 660.882812 317.191406 663.710938 C 313.347656 664.816406 309.582031 666.132812 305.890625 667.667969 C 302.199219 669.199219 298.605469 670.9375 295.109375 672.878906 C 291.617188 674.820312 288.242188 676.953125 284.992188 679.277344 C 281.738281 681.601562 278.628906 684.105469 275.660156 686.78125 C 272.691406 689.460938 269.886719 692.296875 267.242188 695.296875 C 264.597656 698.292969 262.128906 701.429688 259.839844 704.707031 C 257.550781 707.984375 255.457031 711.382812 253.554688 714.898438 C 251.652344 718.414062 249.953125 722.023438 248.460938 725.734375 C 246.914062 729.480469 245.582031 733.304688 244.472656 737.203125 C 243.359375 741.101562 242.472656 745.054688 241.808594 749.054688 C 241.148438 753.054688 240.714844 757.078125 240.511719 761.128906 C 240.308594 765.179688 240.335938 769.226562 240.597656 773.273438 C 240.855469 777.320312 241.34375 781.339844 242.058594 785.328125 C 242.777344 789.320312 243.71875 793.257812 244.882812 797.140625 C 246.050781 801.023438 247.433594 804.828125 249.03125 808.554688 C 250.632812 812.28125 252.4375 815.90625 254.453125 819.425781 C 254.90625 820.234375 255.410156 821.046875 255.878906 821.792969 C 250.507812 822.589844 244.90625 823.644531 239.128906 825.039062 C 187.054688 837.847656 152.496094 890.035156 160.433594 943.792969 C 167.753906 993.449219 207.28125 1029.90625 258.753906 1034.515625 L 259.207031 1034.515625 C 255.316406 1045.9375 253.394531 1057.6875 253.445312 1069.753906 C 253.445312 1113.890625 282.195312 1152.832031 325.03125 1166.660156 C 335.464844 1170.007812 346.164062 1171.675781 357.121094 1171.660156 C 392.523438 1171.660156 418.089844 1154.308594 431.792969 1144.988281 L 434.097656 1143.367188 C 441.710938 1138.269531 448.933594 1133.191406 455.914062 1128.269531 C 459.160156 1126 462.40625 1123.726562 465.652344 1121.46875 C 480.554688 1111.113281 493.683594 1101.992188 505.828125 1093.421875 C 508.816406 1096.789062 512.03125 1099.921875 515.476562 1102.820312 C 518.917969 1105.722656 522.554688 1108.355469 526.382812 1110.726562 C 530.210938 1113.097656 534.1875 1115.179688 538.320312 1116.96875 C 542.449219 1118.761719 546.6875 1120.246094 551.035156 1121.421875 C 560.617188 1124.007812 570.355469 1125.6875 580.253906 1126.453125 C 595.1875 1127.800781 611.695312 1127.980469 624.421875 1127.980469 L 636.953125 1127.980469 C 649.988281 1127.898438 662.976562 1127.039062 675.910156 1125.398438 C 683.085938 1124.46875 690.175781 1123.117188 697.191406 1121.339844 C 701.726562 1122.222656 706.304688 1122.765625 710.921875 1122.964844 L 712.789062 1123.042969 L 714.640625 1123.042969 C 718.308594 1123.042969 723.648438 1123.042969 729.882812 1122.589844 L 731.503906 1122.589844 C 740.222656 1122.3125 756.4375 1121.792969 773.253906 1117.167969 C 778.039062 1115.855469 782.714844 1114.234375 787.28125 1112.296875 C 790.316406 1114.085938 793.433594 1115.789062 796.644531 1117.378906 C 823.996094 1130.980469 857.09375 1137.878906 894.980469 1137.878906 C 901.097656 1137.839844 907.167969 1137.296875 913.195312 1136.257812 C 946.082031 1131.273438 973.515625 1120.886719 995.25 1105.320312 C 997.445312 1107.363281 999.734375 1109.300781 1002.117188 1111.128906 C 1004.496094 1112.953125 1006.960938 1114.664062 1009.5 1116.257812 C 1012.042969 1117.855469 1014.65625 1119.324219 1017.339844 1120.671875 C 1020.023438 1122.015625 1022.761719 1123.234375 1025.558594 1124.320312 C 1028.355469 1125.410156 1031.199219 1126.359375 1034.085938 1127.179688 C 1036.972656 1127.996094 1039.894531 1128.675781 1042.847656 1129.21875 C 1045.800781 1129.757812 1048.769531 1130.160156 1051.761719 1130.417969 C 1054.75 1130.675781 1057.746094 1130.796875 1060.746094 1130.769531 C 1070.890625 1130.648438 1080.988281 1129.878906 1091.035156 1128.464844 C 1094.378906 1128.058594 1097.53125 1127.65625 1099.914062 1127.460938 L 1103.46875 1127.152344 L 1106.992188 1126.535156 C 1110.0625 1126 1113.097656 1125.304688 1116.097656 1124.449219 C 1119.09375 1123.597656 1122.042969 1122.589844 1124.933594 1121.429688 C 1127.828125 1120.269531 1130.652344 1118.964844 1133.410156 1117.507812 C 1136.167969 1116.054688 1138.84375 1114.457031 1141.433594 1112.722656 C 1144.023438 1110.988281 1146.515625 1109.125 1148.914062 1107.132812 C 1151.308594 1105.136719 1153.59375 1103.023438 1155.769531 1100.792969 C 1157.945312 1098.558594 1160 1096.21875 1161.933594 1093.773438 C 1163.863281 1091.324219 1165.664062 1088.785156 1167.328125 1086.148438 C 1182.359375 1096.714844 1198.707031 1108.160156 1218.023438 1121.582031 L 1227.761719 1128.386719 C 1234.742188 1133.253906 1241.949219 1138.382812 1249.578125 1143.480469 L 1251.867188 1145.105469 C 1265.617188 1154.421875 1291.179688 1171.773438 1326.535156 1171.773438 C 1337.496094 1171.773438 1348.195312 1170.089844 1358.628906 1166.726562 C 1401.464844 1152.894531 1430.246094 1113.953125 1430.210938 1069.820312 C 1430.257812 1057.761719 1428.335938 1046.027344 1424.449219 1034.613281 L 1424.902344 1034.613281 C 1476.375 1030.003906 1515.886719 993.546875 1523.222656 943.890625 C 1531.113281 890.035156 1496.554688 837.847656 1444.480469 824.992188 Z M 1444.480469 824.992188 " fill-opacity="1" fill-rule="nonzero"/><path fill="#e5d5b7" d="M 539.949219 413.234375 C 529.625 413.234375 518.132812 411.402344 518.132812 421.222656 C 518.132812 437.453125 521.199219 455.925781 521.199219 474.039062 L 521.199219 482.027344 C 521.574219 492.15625 521.960938 502.300781 521.960938 512.121094 C 521.960938 515.1875 521.574219 518.253906 521.574219 521.339844 C 521.960938 535.152344 522.726562 548.933594 522.726562 563.089844 C 522.726562 573.542969 521.574219 583.671875 521.574219 594.417969 C 522.335938 602.710938 524.25 611.605469 524.25 619.59375 C 524.25 622.660156 523.488281 625.4375 523.488281 628.195312 C 523.488281 636.179688 524.25 643.859375 524.25 651.535156 C 524.25 662.589844 528.84375 682.847656 516.605469 685.007812 C 505.875 685.933594 494.398438 688.074219 484.449219 688.074219 C 461.851562 688.074219 468.363281 652.363281 468.363281 637.757812 C 467.601562 628.550781 466.835938 619.332031 466.835938 609.511719 C 466.835938 603.375 468.363281 596.917969 468.363281 590.78125 C 468.363281 585.246094 467.988281 579.726562 467.988281 574.191406 C 467.988281 560.070312 468.363281 546.257812 468.363281 532.441406 C 468.363281 527.574219 467.988281 522.605469 467.988281 517.703125 C 467.988281 505.109375 469.125 492.511719 469.125 479.933594 C 469.125 460.582031 472.195312 413.59375 462.242188 413.59375 C 449.257812 413.59375 435.054688 414.824219 421.660156 414.824219 C 410.949219 414.824219 412.085938 402.847656 412.085938 391.175781 C 412.085938 374.945312 422.816406 370.917969 445.394531 370.917969 C 451.511719 370.917969 457.648438 371.84375 463.769531 371.84375 C 468.363281 371.84375 472.957031 370.917969 477.175781 370.917969 C 485.976562 370.917969 494.398438 373.367188 503.148438 373.367188 C 524.25 373.367188 545.644531 371.84375 566.324219 371.84375 C 580.933594 371.84375 579.3125 398.851562 579.3125 408.382812 C 579.3125 412.066406 576.632812 414.207031 571.195312 414.207031 C 564.703125 414.207031 557.804688 413.59375 551.292969 413.59375 C 547.609375 413.625 543.777344 413.234375 539.949219 413.234375 Z M 539.949219 413.234375 " fill-opacity="1" fill-rule="nonzero"/><path fill="#e5d5b7" d="M 773.09375 547.132812 C 773.09375 565.863281 775.007812 584.90625 775.007812 603.636719 C 775.007812 631.570312 778.839844 663.808594 746.683594 675.480469 C 725.582031 683.15625 708.390625 687.765625 678.914062 687.765625 C 616.140625 687.765625 610.007812 655.839844 601.207031 574.757812 C 599.667969 562.78125 595.460938 552.652344 595.851562 540.671875 C 595.851562 522.25 597.765625 503.207031 597.765625 484.785156 C 597.765625 474.039062 597.378906 463.683594 596.613281 452.855469 C 596.613281 411.09375 593.171875 362.265625 670.878906 362.265625 L 672.402344 362.265625 C 683.507812 362.265625 695 360.742188 706.101562 360.742188 C 769.652344 360.742188 770.023438 411.058594 774.277344 489.394531 L 773.886719 489.394531 C 773.855469 508.742188 773.09375 527.785156 773.09375 547.132812 Z M 719.121094 555.117188 C 717.578125 516.421875 715.289062 477.722656 712.984375 439.335938 C 711.457031 424.597656 708.78125 402.261719 689.640625 402.261719 C 647.144531 402.261719 657.859375 424.386719 654.808594 445.878906 C 653.90625 452.398438 653.390625 458.953125 653.265625 465.535156 C 653.265625 490.402344 652.503906 518.335938 657.097656 542.605469 L 657.097656 544.4375 C 657.097656 549.972656 654.417969 554.890625 654.417969 560.671875 C 654.417969 590.148438 646.382812 638.355469 680.390625 638.355469 C 709.089844 638.355469 720.191406 626.992188 720.191406 603.667969 C 720.191406 587.4375 719.054688 571.414062 718.664062 555.152344 Z M 719.121094 555.117188 " fill-opacity="1" fill-rule="nonzero"/><path fill="#e5d5b7" d="M 1050.957031 547.132812 C 1050.957031 566.773438 1048.652344 586.089844 1047.128906 605.777344 C 1047.128906 656.746094 1015.359375 682.847656 944.148438 682.847656 L 936.828125 682.847656 C 923.4375 682.847656 910.027344 684.390625 896.246094 684.390625 C 867.53125 684.390625 869.074219 678.253906 865.242188 628.503906 C 863.703125 609.464844 863.328125 591.039062 862.9375 571.691406 L 862.9375 567.390625 C 862.9375 564.9375 862.566406 562.519531 862.566406 560.019531 C 862.566406 532.085938 863.328125 502.902344 866.769531 475.273438 C 867.160156 470.402344 867.160156 465.535156 867.53125 460.84375 C 867.53125 458.066406 867.160156 455 867.160156 452.242188 C 867.160156 427.0625 868.683594 402.179688 870.210938 376.695312 C 872.890625 359.199219 927.25 363.5 935.304688 363.5 C 991.953125 363.5 1042.113281 374.863281 1046.316406 405.265625 C 1048.230469 417.683594 1049.375 430.171875 1049.757812 442.726562 C 1049.757812 444.253906 1049.382812 446.105469 1049.382812 447.597656 C 1049.382812 464.496094 1049.757812 481.375 1050.910156 498.582031 Z M 922.332031 476.507812 C 922.332031 495.53125 923.859375 513.355469 923.859375 532.394531 C 923.859375 538.222656 922.707031 544.066406 922.707031 550.25 C 922.707031 557 925.011719 564.0625 925.386719 570.816406 C 926.164062 591.707031 926.539062 612.582031 928.078125 633.46875 C 928.078125 638.679688 930.367188 639.605469 936.488281 639.605469 C 954.863281 639.605469 981.664062 634.378906 987.019531 617.808594 C 992.199219 600.371094 994.753906 582.558594 994.679688 564.371094 C 994.679688 560.070312 994.308594 555.769531 994.308594 551.484375 C 994.308594 525.074219 998.511719 497.121094 998.511719 470.710938 C 998.511719 462.726562 996.984375 455.046875 997.359375 447.371094 L 997.359375 441.851562 C 997.359375 429.253906 994.679688 409.386719 978.609375 407.765625 L 954.488281 405.914062 C 920.027344 407.40625 922.332031 405.507812 922.332031 476.507812 Z M 922.332031 476.507812 " fill-opacity="1" fill-rule="nonzero"/><path fill="#e5d5b7" d="M 1251.183594 547.132812 C 1251.183594 565.863281 1253.101562 584.90625 1253.101562 603.636719 C 1253.101562 631.570312 1256.914062 663.808594 1224.757812 675.480469 C 1203.65625 683.15625 1186.484375 687.765625 1157.003906 687.765625 C 1094.21875 687.765625 1088.097656 655.839844 1079.285156 574.757812 C 1077.757812 562.78125 1073.554688 552.652344 1073.925781 540.671875 C 1073.925781 522.25 1075.84375 503.207031 1075.84375 484.785156 C 1075.84375 474.039062 1075.46875 463.683594 1074.691406 452.855469 C 1074.691406 411.09375 1071.25 362.265625 1148.96875 362.265625 L 1150.496094 362.265625 C 1161.597656 362.265625 1173.074219 360.742188 1184.179688 360.742188 C 1247.726562 360.742188 1248.117188 411.058594 1252.355469 489.394531 L 1251.980469 489.394531 C 1251.949219 508.742188 1251.183594 527.785156 1251.183594 547.132812 Z M 1197.195312 555.117188 C 1195.671875 516.421875 1193.367188 477.722656 1191.078125 439.335938 C 1189.550781 424.597656 1186.808594 402.261719 1167.71875 402.261719 C 1125.222656 402.261719 1135.953125 424.386719 1132.882812 445.878906 C 1131.996094 452.398438 1131.484375 458.953125 1131.359375 465.535156 C 1131.359375 490.402344 1130.59375 518.335938 1135.1875 542.605469 L 1135.1875 544.4375 C 1135.1875 549.972656 1132.511719 554.890625 1132.511719 560.671875 C 1132.511719 590.148438 1124.394531 638.355469 1158.480469 638.355469 C 1187.195312 638.355469 1198.300781 626.992188 1198.300781 603.667969 C 1198.300781 587.4375 1197.148438 571.414062 1196.773438 555.152344 Z M 1197.195312 555.117188 " fill-opacity="1" fill-rule="nonzero"/><path fill="#e5d5b7" d="M 617.050781 780.46875 C 617.050781 786.605469 615.898438 792.738281 615.898438 798.890625 C 615.898438 812.703125 618.203125 826.828125 618.203125 840.640625 C 618.203125 856.304688 617.8125 871.351562 617.8125 887.324219 C 617.8125 893.816406 618.203125 900.226562 618.203125 906.363281 C 618.203125 908.507812 617.8125 910.664062 617.8125 913.117188 C 617.8125 942.902344 623.558594 973.304688 623.558594 1002.78125 C 623.949219 1005.539062 626.628906 1006.773438 630.832031 1006.773438 C 647.683594 1006.773438 664.515625 1004.015625 680.601562 1003.398438 C 693.585938 1003.398438 694.382812 1035.945312 694.382812 1037.792969 C 694.382812 1047.921875 650.734375 1049.15625 643.460938 1049.15625 C 624.324219 1049.15625 574.945312 1050.066406 573.027344 1041.480469 C 568.742188 1023.199219 566.578125 1004.675781 566.535156 985.898438 L 566.535156 979.40625 C 566.535156 976.339844 566.144531 973.273438 566.144531 970.203125 C 566.144531 965.335938 566.910156 960.058594 566.910156 955.15625 C 566.910156 949.621094 565.773438 944.101562 565.773438 938.566406 C 565.773438 931.816406 566.535156 924.753906 566.535156 918 C 566.535156 901.414062 563.859375 884.839844 563.859375 868.25 C 563.859375 859.339844 564.230469 850.136719 564.230469 841.222656 C 564.230469 835.707031 563.859375 830.171875 563.859375 824.34375 C 563.859375 818.515625 564.230469 813.289062 564.230469 807.445312 L 564.230469 784.492188 C 564.230469 773.4375 564.230469 762.078125 563.09375 750.730469 C 563.09375 743.054688 562.707031 736.285156 577.703125 736.285156 C 608.707031 736.285156 616.371094 735.976562 616.371094 766.378906 C 616.371094 766.6875 616.371094 766.6875 615.980469 766.6875 C 616.238281 771.296875 617.050781 775.90625 617.050781 780.46875 Z M 617.050781 780.46875 " fill-opacity="1" fill-rule="nonzero"/><path fill="#e5d5b7" d="M 708.503906 987.78125 C 708.503906 977.039062 711.554688 965.367188 711.554688 954.929688 C 711.554688 949.703125 710.402344 944.183594 710.402344 938.699219 C 710.402344 928.570312 712.707031 918.132812 712.707031 907.988281 C 712.707031 902.46875 711.945312 896.332031 711.945312 890.796875 C 711.945312 871.757812 713.097656 853.023438 713.097656 833.984375 C 713.097656 818.027344 710.03125 802.054688 710.03125 786.390625 C 710.03125 766.425781 705.808594 743.394531 728.792969 743.394531 C 737.59375 743.394531 746.390625 743.101562 755.578125 743.101562 C 767.460938 743.101562 765.917969 756.914062 765.917969 766.425781 C 765.917969 768.894531 765.15625 771.296875 765.15625 773.796875 C 765.15625 781.472656 766.679688 789.460938 766.679688 797.136719 C 766.679688 806.667969 765.542969 816.179688 765.542969 825.398438 C 765.542969 833.675781 765.917969 842.28125 765.917969 850.265625 C 765.917969 861.011719 763.238281 871.757812 764.003906 882.195312 C 763.898438 920.929688 766.199219 959.527344 770.902344 997.976562 C 772.054688 1007.8125 771.664062 1018.25 771.664062 1028.070312 C 771.664062 1044.660156 741.035156 1043.425781 731.082031 1044.042969 C 727.640625 1044.351562 724.199219 1044.351562 721.132812 1044.351562 C 707.726562 1043.734375 708.878906 1018.25 708.878906 1005.394531 L 708.878906 1001.710938 C 708.878906 996.695312 708.503906 992.394531 708.503906 987.78125 Z M 708.503906 987.78125 " fill-opacity="1" fill-rule="nonzero"/><path fill="#e5d5b7" d="M 919.816406 954.003906 C 919.816406 934.65625 916.375 923.910156 898 923.910156 L 893.40625 923.910156 C 881.152344 923.910156 868.894531 921.460938 856.269531 921.460938 L 852.421875 921.460938 C 812.617188 921.460938 804.566406 887.371094 796.921875 862.8125 C 793.109375 853.902344 792.359375 829.035156 792.359375 821.046875 C 792.359375 811.519531 794.648438 802.007812 794.648438 791.832031 L 794.648438 789.378906 C 794.648438 749.773438 834.078125 736.25 879.253906 736.25 L 898.730469 736.25 C 940.839844 736.25 973.757812 749.238281 973.757812 795.53125 L 973.757812 797.367188 C 973.757812 805.351562 975.378906 813.953125 975.378906 821.925781 C 975.378906 829.308594 972.703125 832.6875 958.140625 832.6875 C 954.328125 832.6875 950.496094 832.378906 946.664062 832.378906 C 940.171875 832.378906 933.679688 832.996094 927.1875 832.996094 C 922.59375 832.996094 919.914062 830.835938 919.914062 827.152344 C 919.914062 820.660156 922.984375 813.335938 922.984375 806.878906 C 922.984375 790.304688 909.203125 779.28125 883.164062 779.28125 C 845.652344 779.28125 851.382812 855.136719 851.382812 857.277344 C 851.382812 877.550781 877.046875 877.242188 893.878906 878.152344 C 900.015625 878.152344 906.863281 876.625 909.203125 876.625 C 957.429688 876.625 967.003906 896.574219 973.515625 921.152344 C 975.917969 930 977.195312 939.007812 977.34375 948.175781 C 977.34375 952.476562 976.957031 957.070312 976.957031 961.375 C 976.957031 968.742188 978.109375 976.421875 978.109375 983.789062 C 978.109375 1019.726562 968.53125 1049.203125 907.285156 1058.457031 C 905.386719 1058.816406 903.472656 1059.019531 901.539062 1059.074219 C 858.671875 1059.074219 810.425781 1046.785156 805.769531 999.8125 C 804.414062 990.117188 803.644531 980.378906 803.464844 970.59375 C 804.242188 960.757812 827.972656 961.375 841.367188 959.847656 C 849.027344 959.847656 855.539062 960.757812 855.539062 970.902344 C 855.539062 973.96875 854.382812 977.039062 854.382812 980.105469 C 854.382812 997.960938 867.371094 1013.882812 887.304688 1013.882812 C 917.933594 1013.882812 920.613281 1000.996094 920.613281 967.816406 L 919.851562 967.816406 Z M 919.816406 954.003906 " fill-opacity="1" fill-rule="nonzero"/><path fill="#e5d5b7" d="M 1122.722656 777.125 C 1112.382812 777.125 1100.890625 775.289062 1100.890625 785.109375 C 1100.890625 801.34375 1103.957031 819.8125 1103.957031 837.929688 L 1103.957031 845.914062 C 1104.347656 856.042969 1104.71875 866.1875 1104.71875 876.007812 C 1104.71875 879.078125 1104.347656 882.144531 1104.347656 885.230469 C 1104.71875 899.042969 1105.484375 912.824219 1105.484375 926.976562 C 1105.484375 937.429688 1104.347656 947.558594 1104.347656 958.304688 C 1105.109375 966.601562 1107.027344 975.496094 1107.027344 983.480469 C 1107.027344 986.550781 1106.261719 989.324219 1106.261719 992.085938 C 1106.261719 1000.070312 1107.027344 1007.75 1107.027344 1015.425781 C 1107.027344 1026.480469 1111.621094 1046.738281 1099.363281 1048.898438 C 1088.652344 1049.820312 1077.15625 1051.964844 1067.207031 1051.964844 C 1044.628906 1051.964844 1051.136719 1016.335938 1051.136719 1001.644531 C 1050.359375 992.441406 1049.59375 983.222656 1049.59375 973.402344 C 1049.59375 967.265625 1051.136719 960.804688 1051.136719 954.667969 C 1051.136719 949.132812 1050.746094 943.617188 1050.746094 938.082031 C 1050.746094 923.957031 1051.136719 910.144531 1051.136719 896.332031 C 1051.136719 891.460938 1050.746094 886.496094 1050.746094 881.59375 C 1050.746094 868.996094 1051.898438 856.402344 1051.898438 843.820312 C 1051.898438 824.472656 1054.953125 777.480469 1045 777.480469 C 1032.015625 777.480469 1017.828125 778.714844 1004.421875 778.714844 C 993.707031 778.714844 994.859375 766.734375 994.859375 755.066406 C 994.859375 738.832031 1005.574219 734.808594 1028.152344 734.808594 C 1034.289062 734.808594 1040.40625 735.734375 1046.542969 735.734375 C 1051.136719 735.734375 1055.730469 734.808594 1059.933594 734.808594 C 1068.734375 734.808594 1077.15625 737.257812 1085.90625 737.257812 C 1107.007812 737.257812 1128.386719 735.734375 1149.066406 735.734375 C 1163.675781 735.734375 1162.054688 762.742188 1162.054688 772.269531 C 1162.054688 775.957031 1159.375 778.097656 1154.019531 778.097656 C 1147.523438 778.097656 1140.609375 777.480469 1134.101562 777.480469 C 1130.367188 777.433594 1126.554688 777.125 1122.722656 777.125 Z M 1122.722656 777.125 " fill-opacity="1" fill-rule="nonzero"/><path fill="#e5d5b7" d="M 473.183594 818.695312 L 418.5625 780.875 C 409.683594 774.722656 400.707031 768.667969 391.84375 762.582031 C 382.316406 756.085938 371.667969 746.167969 360.125 744.027344 C 357.847656 743.359375 355.519531 743.035156 353.148438 743.046875 C 350.773438 743.0625 348.453125 743.414062 346.179688 744.109375 C 330.289062 748.71875 323.457031 767.351562 331.574219 781.554688 C 338.066406 792.917969 352.023438 800.207031 362.59375 807.707031 C 371.84375 814.296875 381.082031 820.902344 390.367188 827.425781 L 446.058594 866.496094 C 457.875 874.792969 477.210938 868.511719 483.539062 856.15625 C 490.828125 841.90625 485.84375 827.539062 473.183594 818.695312 Z M 473.183594 818.695312 " fill-opacity="1" fill-rule="nonzero"/><path fill="#e5d5b7" d="M 394.488281 897.726562 L 325.046875 903.472656 C 313.683594 904.398438 302.433594 905.4375 291.136719 906.492188 C 278.28125 907.679688 264.664062 907.871094 252.179688 910.972656 C 239.695312 914.074219 232.539062 927.207031 234.324219 939.136719 C 236.289062 952.429688 246.789062 959.734375 259.613281 960.886719 C 270.652344 961.875 282.453125 960.011719 293.523438 959.359375 C 304.59375 958.710938 316.152344 957.980469 327.449219 957.203125 L 395.203125 952.527344 C 409.457031 951.535156 423.089844 940.160156 422.199219 924.804688 C 421.402344 910.777344 409.765625 896.476562 394.488281 897.726562 Z M 394.488281 897.726562 " fill-opacity="1" fill-rule="nonzero"/><path fill="#e5d5b7" d="M 494.238281 978.402344 C 486.738281 967.039062 469.027344 959.976562 456.804688 969.117188 C 437.023438 983.886719 417.3125 998.738281 397.671875 1013.671875 C 388.253906 1020.816406 378.761719 1027.84375 369.425781 1035.082031 C 357.007812 1044.707031 341.101562 1054.644531 341.101562 1072.074219 C 341.101562 1081.523438 347.871094 1088.941406 356.457031 1091.714844 C 370.644531 1096.308594 384.214844 1085.875 395.414062 1078.324219 C 405.625 1071.492188 415.625 1064.269531 425.71875 1057.222656 C 445.480469 1043.480469 465.203125 1029.671875 484.886719 1015.800781 C 496.574219 1007.714844 502.792969 991.289062 494.238281 978.402344 Z M 494.238281 978.402344 " fill-opacity="1" fill-rule="nonzero"/><path fill="#e5d5b7" d="M 1223.378906 818.695312 L 1278 780.875 C 1286.878906 774.722656 1295.855469 768.667969 1304.734375 762.582031 C 1314.246094 756.085938 1324.894531 746.167969 1336.453125 744.027344 C 1338.730469 743.359375 1341.058594 743.035156 1343.429688 743.046875 C 1345.804688 743.0625 1348.128906 743.414062 1350.398438 744.109375 C 1366.273438 748.71875 1373.121094 767.351562 1365.007812 781.554688 C 1358.511719 792.917969 1344.554688 800.207031 1334.003906 807.707031 C 1324.75 814.296875 1315.515625 820.902344 1306.214844 827.425781 C 1287.675781 840.488281 1269.105469 853.511719 1250.503906 866.496094 C 1238.703125 874.792969 1219.351562 868.511719 1213.039062 856.15625 C 1205.734375 841.90625 1210.734375 827.539062 1223.378906 818.695312 Z M 1223.378906 818.695312 " fill-opacity="1" fill-rule="nonzero"/><path fill="#e5d5b7" d="M 1289.070312 892.84375 L 1358.511719 898.570312 C 1369.875 899.496094 1381.109375 900.535156 1392.40625 901.589844 C 1405.277344 902.792969 1418.898438 902.972656 1431.363281 906.070312 C 1443.832031 909.171875 1451.003906 922.304688 1449.21875 934.234375 C 1447.257812 947.527344 1436.738281 954.832031 1423.929688 955.984375 C 1412.875 956.976562 1401.089844 955.109375 1390.003906 954.457031 C 1378.917969 953.808594 1367.394531 953.078125 1356.09375 952.300781 L 1288.40625 947.65625 C 1274.152344 946.652344 1260.519531 935.273438 1261.394531 919.933594 C 1262.207031 905.875 1273.84375 891.574219 1289.070312 892.84375 Z M 1289.070312 892.84375 " fill-opacity="1" fill-rule="nonzero"/><path fill="#e5d5b7" d="M 1202.324219 978.402344 C 1209.824219 967.039062 1227.535156 959.976562 1239.757812 969.117188 C 1259.527344 983.886719 1279.246094 998.738281 1298.910156 1013.671875 C 1308.308594 1020.816406 1317.804688 1027.84375 1327.136719 1035.082031 C 1339.554688 1044.707031 1355.476562 1054.644531 1355.496094 1072.074219 C 1355.496094 1081.523438 1348.726562 1088.941406 1340.121094 1091.714844 C 1325.933594 1096.308594 1312.363281 1085.875 1301.164062 1078.324219 C 1290.9375 1071.492188 1280.957031 1064.269531 1270.859375 1057.222656 C 1251.085938 1043.480469 1231.367188 1029.671875 1211.691406 1015.800781 C 1199.988281 1007.714844 1193.769531 991.289062 1202.324219 978.402344 Z M 1202.324219 978.402344 " fill-opacity="1" fill-rule="nonzero"/><path fill="#fc9f42" d="M 539.949219 410.945312 C 529.625 410.945312 518.132812 409.09375 518.132812 418.933594 C 518.132812 435.164062 521.199219 453.636719 521.199219 471.75 L 521.199219 479.738281 C 521.574219 489.867188 521.960938 499.996094 521.960938 509.816406 C 521.960938 512.898438 521.574219 515.96875 521.574219 519.035156 C 521.960938 532.847656 522.726562 546.628906 522.726562 560.800781 C 522.726562 571.238281 521.574219 581.367188 521.574219 592.113281 C 522.335938 600.40625 524.25 609.316406 524.25 617.304688 C 524.25 620.371094 523.488281 623.132812 523.488281 625.890625 C 523.488281 633.875 524.25 641.554688 524.25 649.230469 C 524.25 660.285156 528.84375 680.558594 516.605469 682.703125 C 505.875 683.628906 494.398438 685.769531 484.449219 685.769531 C 461.851562 685.769531 468.363281 650.15625 468.363281 635.449219 C 467.601562 626.230469 466.835938 617.027344 466.835938 607.191406 C 466.835938 601.054688 468.363281 594.609375 468.363281 588.460938 C 468.363281 582.941406 467.988281 577.40625 467.988281 571.886719 C 467.988281 557.765625 468.363281 543.933594 468.363281 530.121094 C 468.363281 525.25 467.988281 520.300781 467.988281 515.382812 C 467.988281 502.785156 469.125 490.207031 469.125 477.609375 C 469.125 458.261719 472.195312 411.285156 462.242188 411.285156 C 449.257812 411.285156 435.054688 412.519531 421.660156 412.519531 C 410.949219 412.519531 412.085938 400.542969 412.085938 388.871094 C 412.085938 372.636719 422.816406 368.597656 445.394531 368.597656 C 451.511719 368.597656 457.648438 369.523438 463.769531 369.523438 C 468.363281 369.523438 472.957031 368.597656 477.175781 368.597656 C 485.976562 368.597656 494.398438 371.0625 503.148438 371.0625 C 524.25 371.0625 545.644531 369.523438 566.324219 369.523438 C 580.933594 369.523438 579.3125 396.546875 579.3125 406.058594 C 579.3125 409.746094 576.632812 411.902344 571.195312 411.902344 C 564.703125 411.902344 557.804688 411.285156 551.292969 411.285156 C 547.609375 411.253906 543.777344 410.945312 539.949219 410.945312 Z M 539.949219 410.945312 " fill-opacity="1" fill-rule="nonzero"/><path fill="#fc9f42" d="M 773.09375 544.828125 C 773.09375 563.558594 775.007812 582.597656 775.007812 601.332031 C 775.007812 629.28125 778.839844 661.519531 746.683594 673.191406 C 725.582031 680.867188 708.390625 685.460938 678.914062 685.460938 C 616.140625 685.460938 610.007812 653.535156 601.207031 572.472656 C 599.667969 560.492188 595.460938 550.363281 595.851562 538.382812 C 595.851562 519.960938 597.765625 500.921875 597.765625 482.496094 C 597.765625 471.75 597.378906 461.296875 596.613281 450.550781 C 596.613281 408.804688 593.171875 359.976562 670.878906 359.976562 L 672.402344 359.976562 C 683.507812 359.976562 695 358.355469 706.101562 358.355469 C 769.652344 358.355469 770.023438 408.671875 774.277344 487.027344 L 773.886719 487.027344 C 773.855469 506.4375 773.09375 525.480469 773.09375 544.828125 Z M 719.121094 552.8125 C 717.578125 514.117188 715.289062 475.4375 712.984375 437.046875 C 711.457031 422.308594 708.78125 399.890625 689.640625 399.890625 C 647.144531 399.890625 657.859375 422 654.808594 443.492188 C 653.90625 450.011719 653.390625 456.566406 653.265625 463.148438 C 653.265625 488.015625 652.503906 515.96875 657.097656 540.21875 L 657.097656 542.066406 C 657.097656 547.585938 654.417969 552.503906 654.417969 558.300781 C 654.417969 587.777344 646.382812 635.988281 680.390625 635.988281 C 709.089844 635.988281 720.191406 624.625 720.191406 601.28125 C 720.191406 585.050781 719.054688 569.046875 718.664062 552.765625 Z M 719.121094 552.8125 " fill-opacity="1" fill-rule="nonzero"/><path fill="#fc90ad" d="M 1050.957031 544.828125 C 1050.957031 564.484375 1048.652344 583.785156 1047.128906 603.472656 C 1047.128906 654.457031 1015.359375 680.558594 944.148438 680.558594 L 936.828125 680.558594 C 923.4375 680.558594 910.027344 682.085938 896.246094 682.085938 C 867.53125 682.085938 869.074219 675.949219 865.242188 626.199219 C 863.703125 607.160156 863.328125 588.734375 862.9375 569.386719 L 862.9375 565.085938 C 862.9375 562.617188 862.566406 560.214844 862.566406 557.714844 C 862.566406 529.765625 863.328125 500.59375 866.769531 472.953125 C 867.160156 468.082031 867.160156 463.214844 867.53125 458.523438 C 867.53125 455.761719 867.160156 452.695312 867.160156 449.933594 C 867.160156 424.742188 868.683594 399.875 870.210938 374.390625 C 872.890625 356.878906 927.25 361.179688 935.304688 361.179688 C 991.953125 361.179688 1042.113281 372.542969 1046.316406 402.945312 C 1048.230469 415.359375 1049.375 427.847656 1049.757812 440.40625 C 1049.757812 441.949219 1049.382812 443.785156 1049.382812 445.277344 C 1049.382812 462.15625 1049.757812 479.054688 1050.910156 496.246094 Z M 922.332031 474.203125 C 922.332031 493.242188 923.859375 511.050781 923.859375 530.089844 C 923.859375 535.933594 922.707031 541.761719 922.707031 547.945312 C 922.707031 554.714844 925.011719 561.773438 925.386719 568.527344 C 926.164062 589.402344 926.539062 610.292969 928.078125 631.164062 C 928.078125 636.390625 930.367188 637.300781 936.488281 637.300781 C 954.863281 637.300781 981.664062 632.089844 987.019531 615.5 C 992.199219 598.070312 994.75 580.265625 994.679688 562.082031 C 994.679688 557.78125 994.308594 553.480469 994.308594 549.097656 C 994.308594 522.6875 998.511719 494.75 998.511719 468.34375 C 998.511719 460.355469 996.984375 452.679688 997.359375 445 L 997.359375 439.5 C 997.359375 426.917969 994.679688 407.035156 978.609375 405.410156 L 954.488281 403.578125 C 920.027344 405.117188 922.332031 403.269531 922.332031 474.203125 Z M 922.332031 474.203125 " fill-opacity="1" fill-rule="nonzero"/><path fill="#fc90ad" d="M 1251.183594 544.828125 C 1251.183594 563.558594 1253.101562 582.597656 1253.101562 601.332031 C 1253.101562 629.28125 1256.914062 661.519531 1224.757812 673.191406 C 1203.65625 680.867188 1186.484375 685.460938 1157.003906 685.460938 C 1094.21875 685.460938 1088.097656 653.535156 1079.285156 572.472656 C 1077.757812 560.492188 1073.554688 550.363281 1073.925781 538.382812 C 1073.925781 519.960938 1075.84375 500.921875 1075.84375 482.496094 C 1075.84375 471.75 1075.46875 461.296875 1074.691406 450.550781 C 1074.691406 408.804688 1071.25 359.976562 1148.96875 359.976562 L 1150.496094 359.976562 C 1161.597656 359.976562 1173.074219 358.355469 1184.179688 358.355469 C 1247.726562 358.355469 1248.117188 408.671875 1252.355469 487.027344 L 1251.980469 487.027344 C 1251.949219 506.4375 1251.183594 525.480469 1251.183594 544.828125 Z M 1197.195312 552.8125 C 1195.671875 514.117188 1193.367188 475.4375 1191.078125 437.046875 C 1189.550781 422.308594 1186.855469 399.890625 1167.71875 399.890625 C 1125.222656 399.890625 1135.953125 422 1132.882812 443.492188 C 1131.996094 450.015625 1131.488281 456.566406 1131.359375 463.148438 C 1131.359375 488.015625 1130.59375 515.96875 1135.1875 540.21875 L 1135.1875 542.066406 C 1135.1875 547.585938 1132.511719 552.503906 1132.511719 558.300781 C 1132.511719 587.777344 1124.394531 635.988281 1158.480469 635.988281 C 1187.195312 635.988281 1198.300781 624.625 1198.300781 601.28125 C 1198.300781 585.050781 1197.148438 569.046875 1196.773438 552.765625 Z M 1197.195312 552.8125 " fill-opacity="1" fill-rule="nonzero"/><path fill="#73b8c9" d="M 617.050781 778.210938 C 617.050781 784.347656 615.898438 790.5 615.898438 796.636719 C 615.898438 810.449219 618.203125 824.585938 618.203125 838.398438 C 618.203125 854.0625 617.8125 869.109375 617.8125 885.066406 C 617.8125 891.558594 618.203125 897.972656 618.203125 904.105469 C 618.203125 906.265625 617.8125 908.410156 617.8125 910.875 C 617.8125 940.660156 623.558594 971.046875 623.558594 1000.542969 C 623.949219 1003.300781 626.628906 1004.519531 630.832031 1004.519531 C 647.683594 1004.519531 664.515625 1001.757812 680.601562 1001.140625 C 693.585938 1001.140625 694.382812 1033.703125 694.382812 1035.539062 C 694.382812 1045.667969 650.734375 1046.898438 643.460938 1046.898438 C 624.324219 1046.898438 574.945312 1047.824219 573.027344 1039.222656 C 568.742188 1020.945312 566.578125 1002.417969 566.535156 983.644531 L 566.535156 977.152344 C 566.535156 974.082031 566.144531 971 566.144531 967.929688 C 566.144531 963.0625 566.910156 957.800781 566.910156 952.882812 C 566.910156 947.367188 565.773438 941.832031 565.773438 936.3125 C 565.773438 929.558594 566.535156 922.480469 566.535156 915.730469 C 566.535156 899.15625 563.859375 882.566406 563.859375 865.996094 C 563.859375 857.082031 564.230469 847.863281 564.230469 838.96875 C 564.230469 833.433594 563.859375 827.914062 563.859375 822.070312 C 563.859375 816.226562 564.230469 811.015625 564.230469 805.1875 L 564.230469 782.203125 C 564.230469 771.152344 564.230469 759.789062 563.09375 748.425781 C 563.09375 740.75 562.707031 733.996094 577.703125 733.996094 C 608.707031 733.996094 616.371094 733.6875 616.371094 764.089844 C 616.371094 764.398438 616.371094 764.398438 615.980469 764.398438 C 616.238281 768.992188 617.050781 773.601562 617.050781 778.210938 Z M 617.050781 778.210938 " fill-opacity="1" fill-rule="nonzero"/><path fill="#73b8c9" d="M 708.503906 985.496094 C 708.503906 974.734375 711.554688 963.078125 711.554688 952.625 C 711.554688 947.414062 710.402344 941.878906 710.402344 936.390625 C 710.402344 926.246094 712.707031 915.808594 712.707031 905.679688 C 712.707031 900.144531 711.945312 894.011719 711.945312 888.492188 C 711.945312 869.453125 713.097656 850.71875 713.097656 831.679688 C 713.097656 815.707031 710.03125 799.734375 710.03125 784.070312 C 710.03125 764.121094 705.808594 741.089844 728.792969 741.089844 C 737.59375 741.089844 746.390625 740.78125 755.578125 740.78125 C 767.460938 740.78125 765.917969 754.59375 765.917969 764.121094 C 765.917969 766.574219 765.15625 768.992188 765.15625 771.492188 C 765.15625 779.167969 766.679688 787.15625 766.679688 794.832031 C 766.679688 804.34375 765.542969 813.855469 765.542969 823.078125 C 765.542969 831.371094 765.917969 839.972656 765.917969 847.945312 C 765.917969 858.707031 763.238281 869.453125 764.003906 879.890625 C 763.902344 918.621094 766.199219 957.210938 770.902344 995.65625 C 772.054688 1005.476562 771.664062 1015.914062 771.664062 1025.75 C 771.664062 1042.324219 741.035156 1041.105469 731.082031 1041.722656 C 727.640625 1042.015625 724.199219 1042.015625 721.132812 1042.015625 C 707.726562 1041.414062 708.878906 1015.914062 708.878906 1003.058594 L 708.878906 999.371094 C 708.878906 994.390625 708.503906 990.089844 708.503906 985.496094 Z M 708.503906 985.496094 " fill-opacity="1" fill-rule="nonzero"/><path fill="#73b8c9" d="M 919.816406 951.714844 C 919.816406 932.367188 916.375 921.621094 898 921.621094 L 893.40625 921.621094 C 881.152344 921.621094 868.894531 919.152344 856.269531 919.152344 L 852.421875 919.152344 C 812.617188 919.152344 804.566406 885.066406 796.921875 860.507812 C 793.089844 851.597656 792.328125 826.730469 792.328125 818.742188 C 792.328125 809.230469 794.617188 799.703125 794.617188 789.523438 L 794.617188 787.121094 C 794.617188 747.5 834.046875 733.996094 879.21875 733.996094 L 898.699219 733.996094 C 940.804688 733.996094 973.726562 746.882812 973.726562 793.257812 L 973.726562 795.078125 C 973.726562 803.0625 975.347656 811.664062 975.347656 819.652344 C 975.347656 827.019531 972.671875 830.398438 958.109375 830.398438 C 954.296875 830.398438 950.464844 830.089844 946.632812 830.089844 C 940.140625 830.089844 933.648438 830.707031 927.15625 830.707031 C 922.5625 830.707031 919.882812 828.5625 919.882812 824.878906 C 919.882812 818.386719 922.949219 811.050781 922.949219 804.605469 C 922.949219 788.015625 909.167969 777.011719 883.132812 777.011719 C 845.621094 777.011719 851.347656 852.863281 851.347656 854.925781 C 851.347656 875.199219 877.011719 874.890625 893.84375 875.816406 C 899.980469 875.816406 906.832031 874.273438 909.167969 874.273438 C 957.394531 874.273438 966.972656 894.238281 973.480469 918.796875 C 975.882812 927.644531 977.160156 936.65625 977.3125 945.824219 C 977.3125 950.125 976.921875 954.734375 976.921875 959.035156 C 976.921875 966.40625 978.074219 974.082031 978.074219 981.453125 C 978.074219 1017.375 968.5 1046.851562 907.253906 1056.121094 C 905.355469 1056.476562 903.4375 1056.683594 901.507812 1056.738281 C 858.636719 1056.738281 810.394531 1044.449219 805.734375 997.457031 C 804.378906 987.765625 803.613281 978.027344 803.429688 968.238281 C 804.210938 958.5 827.941406 959.035156 841.332031 957.496094 C 848.996094 957.496094 855.503906 958.417969 855.503906 968.546875 C 855.503906 971.617188 854.351562 974.683594 854.351562 977.769531 C 854.351562 995.625 867.339844 1011.546875 887.269531 1011.546875 C 917.902344 1011.546875 920.582031 998.640625 920.582031 965.480469 L 919.816406 965.480469 Z M 919.816406 951.714844 " fill-opacity="1" fill-rule="nonzero"/><path fill="#73b8c9" d="M 1122.722656 774.835938 C 1112.382812 774.835938 1100.890625 772.984375 1100.890625 782.820312 C 1100.890625 799.054688 1103.957031 817.527344 1103.957031 835.640625 L 1103.957031 843.625 C 1104.347656 853.753906 1104.71875 863.882812 1104.71875 873.703125 C 1104.71875 876.789062 1104.347656 879.855469 1104.347656 882.925781 C 1104.71875 896.738281 1105.484375 910.519531 1105.484375 924.6875 C 1105.484375 935.125 1104.347656 945.253906 1104.347656 956 C 1105.109375 964.296875 1107.027344 973.207031 1107.027344 981.191406 C 1107.027344 984.261719 1106.261719 987.019531 1106.261719 989.78125 C 1106.261719 997.765625 1107.027344 1005.445312 1107.027344 1013.121094 C 1107.027344 1024.175781 1111.621094 1044.449219 1099.363281 1046.589844 C 1088.652344 1047.515625 1077.15625 1049.660156 1067.207031 1049.660156 C 1044.628906 1049.660156 1051.136719 1014.046875 1051.136719 999.339844 C 1050.359375 990.121094 1049.59375 980.917969 1049.59375 971.082031 C 1049.59375 964.945312 1051.136719 958.5 1051.136719 952.347656 C 1051.136719 946.828125 1050.746094 941.292969 1050.746094 935.777344 C 1050.746094 921.652344 1051.136719 907.824219 1051.136719 894.011719 C 1051.136719 889.140625 1050.746094 884.191406 1050.746094 879.273438 C 1050.746094 866.675781 1051.898438 854.097656 1051.898438 841.5 C 1051.898438 822.152344 1054.953125 775.175781 1045 775.175781 C 1032.015625 775.175781 1017.828125 776.394531 1004.421875 776.394531 C 993.707031 776.394531 994.859375 764.429688 994.859375 752.761719 C 994.859375 736.527344 1005.574219 732.484375 1028.152344 732.484375 C 1034.289062 732.484375 1040.40625 733.410156 1046.542969 733.410156 C 1051.136719 733.410156 1055.730469 732.484375 1059.933594 732.484375 C 1068.734375 732.484375 1077.15625 734.953125 1085.90625 734.953125 C 1107.007812 734.953125 1128.386719 733.410156 1149.066406 733.410156 C 1163.675781 733.410156 1162.054688 760.4375 1162.054688 769.949219 C 1162.054688 773.632812 1159.375 775.792969 1154.019531 775.792969 C 1147.523438 775.792969 1140.609375 775.175781 1134.101562 775.175781 C 1130.367188 775.144531 1126.554688 774.835938 1122.722656 774.835938 Z M 1122.722656 774.835938 " fill-opacity="1" fill-rule="nonzero"/><path fill="#fc90ad" d="M 473.183594 816.390625 L 418.5625 778.570312 C 409.683594 772.433594 400.707031 766.363281 391.84375 760.273438 C 382.316406 753.78125 371.667969 743.863281 360.125 741.738281 C 357.847656 741.066406 355.523438 740.734375 353.148438 740.75 C 350.773438 740.765625 348.449219 741.121094 346.179688 741.820312 C 330.289062 746.414062 323.457031 765.0625 331.574219 779.265625 C 338.066406 790.628906 352.023438 797.902344 362.59375 805.417969 C 371.84375 811.992188 381.082031 818.597656 390.367188 825.121094 L 446.125 864.226562 C 457.941406 872.503906 477.273438 866.222656 483.605469 853.867188 C 490.828125 839.617188 485.84375 825.15625 473.183594 816.390625 Z M 473.183594 816.390625 " fill-opacity="1" fill-rule="nonzero"/><path fill="#fc90ad" d="M 394.488281 895.4375 L 325.046875 901.167969 C 313.738281 902.109375 302.433594 903.117188 291.136719 904.1875 C 278.28125 905.390625 264.664062 905.566406 252.179688 908.683594 C 239.695312 911.800781 232.539062 924.917969 234.324219 936.847656 C 236.289062 950.125 246.789062 957.429688 259.613281 958.582031 C 270.652344 959.570312 282.453125 957.722656 293.523438 957.054688 C 304.59375 956.390625 316.152344 955.691406 327.449219 954.898438 L 395.285156 950.171875 C 409.535156 949.183594 423.171875 937.789062 422.277344 922.449219 C 421.402344 908.472656 409.765625 894.171875 394.488281 895.4375 Z M 394.488281 895.4375 " fill-opacity="1" fill-rule="nonzero"/><path fill="#fc90ad" d="M 494.238281 976.113281 C 486.738281 964.75 469.027344 957.6875 456.804688 966.8125 C 437.023438 981.605469 417.3125 996.460938 397.671875 1011.382812 C 388.253906 1018.511719 378.761719 1025.539062 369.425781 1032.777344 C 357.007812 1042.421875 341.101562 1052.355469 341.101562 1069.789062 C 341.101562 1079.234375 347.871094 1086.652344 356.457031 1089.429688 C 370.644531 1094.003906 384.214844 1083.566406 395.414062 1076.035156 C 405.625 1069.1875 415.625 1061.980469 425.71875 1054.933594 C 445.480469 1041.179688 465.203125 1027.378906 484.886719 1013.527344 C 496.574219 1005.328125 502.792969 989 494.238281 976.113281 Z M 494.238281 976.113281 " fill-opacity="1" fill-rule="nonzero"/><path fill="#fc90ad" d="M 1223.378906 816.390625 L 1278 778.570312 C 1286.878906 772.433594 1295.855469 766.363281 1304.734375 760.273438 C 1314.246094 753.78125 1324.894531 743.863281 1336.453125 741.738281 C 1338.730469 741.066406 1341.058594 740.734375 1343.433594 740.75 C 1345.804688 740.765625 1348.128906 741.121094 1350.398438 741.820312 C 1366.273438 746.414062 1373.121094 765.0625 1365.007812 779.265625 C 1358.511719 790.628906 1344.554688 797.902344 1334.003906 805.417969 C 1324.75 811.992188 1315.515625 818.597656 1306.214844 825.121094 C 1287.644531 838.171875 1269.058594 851.207031 1250.453125 864.226562 C 1238.652344 872.503906 1219.304688 866.222656 1212.992188 853.867188 C 1205.734375 839.617188 1210.734375 825.15625 1223.378906 816.390625 Z M 1223.378906 816.390625 " fill-opacity="1" fill-rule="nonzero"/><path fill="#fc90ad" d="M 1289.070312 890.539062 L 1358.511719 896.265625 C 1369.8125 897.207031 1381.109375 898.214844 1392.40625 899.285156 C 1405.277344 900.488281 1418.898438 900.683594 1431.363281 903.78125 C 1443.832031 906.882812 1451.003906 920.015625 1449.21875 931.945312 C 1447.257812 945.238281 1436.738281 952.542969 1423.929688 953.679688 C 1412.875 954.667969 1401.089844 952.820312 1390.003906 952.171875 C 1378.917969 951.519531 1367.394531 950.789062 1356.09375 949.996094 L 1288.261719 945.269531 C 1274.007812 944.28125 1260.371094 932.902344 1261.25 917.546875 C 1262.207031 903.570312 1273.84375 889.222656 1289.070312 890.539062 Z M 1289.070312 890.539062 " fill-opacity="1" fill-rule="nonzero"/><path fill="#fc90ad" d="M 1202.324219 976.113281 C 1209.824219 964.75 1227.535156 957.6875 1239.757812 966.8125 C 1259.527344 981.605469 1279.246094 996.460938 1298.910156 1011.382812 C 1308.308594 1018.511719 1317.804688 1025.539062 1327.136719 1032.777344 C 1339.554688 1042.421875 1355.476562 1052.355469 1355.496094 1069.789062 C 1355.496094 1079.234375 1348.726562 1086.652344 1340.121094 1089.429688 C 1325.933594 1094.003906 1312.363281 1083.566406 1301.164062 1076.035156 C 1290.9375 1069.1875 1280.957031 1061.980469 1270.859375 1054.933594 C 1251.085938 1041.179688 1231.367188 1027.378906 1211.691406 1013.527344 C 1199.988281 1005.328125 1193.769531 989 1202.324219 976.113281 Z M 1202.324219 976.113281 " fill-opacity="1" fill-rule="nonzero"/><g fill="#ff3131" fill-opacity="1"><g transform="translate(561.940399, 340.073407)"><g><path d="M 94.625 3.109375 C 67.625 3.109375 47.113281 -5.128906 33.09375 -21.609375 C 19.082031 -38.097656 12.078125 -61.269531 12.078125 -91.125 L 12.078125 -250.375 C 12.078125 -279.1875 19.082031 -300.925781 33.09375 -315.59375 C 47.113281 -330.269531 67.625 -337.609375 94.625 -337.609375 C 121.625 -337.609375 142.128906 -330.269531 156.140625 -315.59375 C 170.160156 -300.925781 177.171875 -279.1875 177.171875 -250.375 L 177.171875 -91.125 C 177.171875 -61.007812 170.160156 -37.773438 156.140625 -21.421875 C 142.128906 -5.066406 121.625 3.109375 94.625 3.109375 Z M 94.625 -58.40625 C 100.59375 -58.40625 104.613281 -61 106.6875 -66.1875 C 108.769531 -71.382812 109.8125 -78.65625 109.8125 -88 L 109.8125 -251.546875 C 109.8125 -258.816406 108.835938 -264.722656 106.890625 -269.265625 C 104.941406 -273.804688 100.984375 -276.078125 95.015625 -276.078125 C 83.847656 -276.078125 78.265625 -267.640625 78.265625 -250.765625 L 78.265625 -87.609375 C 78.265625 -78.003906 79.429688 -70.734375 81.765625 -65.796875 C 84.109375 -60.867188 88.394531 -58.40625 94.625 -58.40625 Z M 94.625 -58.40625 "/></g></g></g><g fill="#ff3131" fill-opacity="1"><g transform="translate(751.177623, 340.073407)"><g><path d="M 92.28125 3.109375 C 64.769531 3.109375 44.328125 -4.675781 30.953125 -20.25 C 17.585938 -35.820312 10.90625 -58.925781 10.90625 -89.5625 L 10.90625 -334.484375 L 75.9375 -334.484375 L 75.9375 -92.28125 C 75.9375 -81.644531 76.972656 -73.335938 79.046875 -67.359375 C 81.117188 -61.390625 85.53125 -58.40625 92.28125 -58.40625 C 99.03125 -58.40625 103.441406 -61.328125 105.515625 -67.171875 C 107.597656 -73.015625 108.640625 -81.382812 108.640625 -92.28125 L 108.640625 -334.484375 L 173.671875 -334.484375 L 173.671875 -89.5625 C 173.671875 -58.925781 166.984375 -35.820312 153.609375 -20.25 C 140.242188 -4.675781 119.800781 3.109375 92.28125 3.109375 Z M 92.28125 3.109375 "/></g></g></g><g fill="#ff3131" fill-opacity="1"><g transform="translate(935.742295, 340.073407)"><g><path d="M 14.796875 -334.484375 L 117.59375 -334.484375 C 133.945312 -334.484375 146.601562 -330.785156 155.5625 -323.390625 C 164.519531 -315.992188 170.554688 -305.609375 173.671875 -292.234375 C 176.785156 -278.867188 178.34375 -261.800781 178.34375 -241.03125 C 178.34375 -222.082031 175.875 -207.285156 170.9375 -196.640625 C 166.007812 -185.992188 157.445312 -178.597656 145.25 -174.453125 C 155.363281 -172.367188 162.691406 -167.300781 167.234375 -159.25 C 171.785156 -151.207031 174.0625 -140.304688 174.0625 -126.546875 L 173.28125 0 L 107.859375 0 L 107.859375 -130.828125 C 107.859375 -140.179688 106.039062 -146.15625 102.40625 -148.75 C 98.769531 -151.34375 92.148438 -152.640625 82.546875 -152.640625 L 82.546875 0 L 14.796875 0 Z M 98.90625 -210.65625 C 108.25 -210.65625 112.921875 -220.78125 112.921875 -241.03125 C 112.921875 -249.851562 112.53125 -256.472656 111.75 -260.890625 C 110.976562 -265.304688 109.550781 -268.359375 107.46875 -270.046875 C 105.394531 -271.734375 102.410156 -272.578125 98.515625 -272.578125 L 82.9375 -272.578125 L 82.9375 -210.65625 Z M 98.90625 -210.65625 "/></g></g></g></svg>